<svg xmlns="http://www.w3.org/2000/svg" id="Layer_1" viewBox="0 0 380.92 195.79"><defs><style>      .st0 {        fill: #acc435;      }    </style></defs><g><path class="st0" d="M65.58,71.56c.93.93,2.03,1.39,3.31,1.39h9.48c1.28,0,2.37-.46,3.28-1.39.9-.93,1.36-2.03,1.36-3.31l.07-11.6c0-5.26-1.87-9.74-5.6-13.45-3.73-3.71-8.21-5.57-13.42-5.57h-7.16c-5.21,0-9.69,1.86-13.42,5.57-3.73,3.71-5.6,8.19-5.6,13.45v15.97c0,5.21,1.87,9.69,5.6,13.42,3.73,3.73,8.21,5.6,13.42,5.6h3.58c1.02,0,1.89.36,2.62,1.09.73.73,1.09,1.6,1.09,2.62v47.71c.09,1.5-.53,2.61-1.86,3.31-1.24.71-2.5.71-3.78,0-1.33-.71-1.94-1.81-1.86-3.31v-40.22c0-1.28-.46-2.39-1.39-3.31-.93-.93-2.03-1.39-3.31-1.39h-9.41c-1.28,0-2.39.46-3.31,1.39-.93.93-1.39,2.03-1.39,3.31v37.04c0,5.26,1.87,9.74,5.6,13.45,3.73,3.71,8.21,5.57,13.42,5.57h7.16c5.21,0,9.68-1.86,13.42-5.57,3.73-3.71,5.6-8.19,5.6-13.45v-41.41c0-5.21-1.86-9.67-5.57-13.38-3.71-3.71-8.19-5.57-13.45-5.57h-3.64c-1.02,0-1.89-.37-2.62-1.13-.73-.75-1.09-1.63-1.09-2.65v-22.2c.04-1.02.43-1.88,1.16-2.58.73-.71,1.6-1.06,2.62-1.06s1.88.35,2.58,1.06c.71.71,1.08,1.57,1.13,2.58v14.71c0,1.28.46,2.39,1.39,3.31Z"></path><path class="st0" d="M137.64,135.7c5.21,0,9.68-1.5,13.41-4.5,3.73-3.01,5.6-6.63,5.6-10.88V53.01c0-4.25-1.87-7.87-5.6-10.88-3.73-3-8.2-4.5-13.41-4.5h-27.99c-5.21,0-9.68,1.5-13.41,4.5-3.73,3.01-5.6,6.63-5.6,10.88v67.31c0,4.25,1.87,7.87,5.6,10.88,3.73,3,8.2,4.5,13.41,4.5h27.99ZM113.23,125.89c-1.01,0-1.89-.3-2.62-.89-.73-.59-1.1-1.29-1.1-2.12V50.49c0-.82.37-1.53,1.1-2.15.73-.61,1.6-.91,2.62-.91h20.83c1.01,0,1.89.31,2.62.91.73.61,1.1,1.33,1.1,2.15v72.4c0,.83-.37,1.53-1.1,2.12-.73.59-1.6.89-2.62.89h-20.83Z"></path><path class="st0" d="M183.31,135.7h7.16c5.21,0,9.68-1.5,13.42-4.5,3.73-3,5.6-6.63,5.6-10.88V41.44c0-1.04-.46-1.93-1.39-2.68-.93-.75-2.03-1.13-3.31-1.13h-9.48c-1.28,0-2.39.38-3.31,1.13-.93.75-1.39,1.64-1.39,2.68v81.45c.09,1.21-.51,2.11-1.79,2.68-1.28.57-2.56.57-3.84,0-1.28-.57-1.88-1.46-1.79-2.68V41.44c0-1.04-.46-1.93-1.39-2.68-.93-.75-2.03-1.13-3.31-1.13h-9.48c-1.28,0-2.39.38-3.31,1.13-.93.75-1.39,1.64-1.39,2.68v78.88c0,4.25,1.87,7.88,5.6,10.88,3.73,3,8.2,4.5,13.42,4.5Z"></path><path class="st0" d="M221.83,135.7h9.48c1.28,0,2.39-.38,3.31-1.13.93-.75,1.39-1.64,1.39-2.68v-11.95c.04-1.14.54-2.14,1.49-3,.95-.86,2.13-1.36,3.54-1.5h10.07c1.28,0,2.39-.38,3.31-1.13.93-.75,1.39-1.64,1.39-2.68v-2.2c0-1.04-.46-1.93-1.39-2.68-.93-.75-2.03-1.13-3.31-1.13h-15.11v-58.2h7.42v43.94c0,1.04.46,1.93,1.39,2.68.93.75,2.03,1.13,3.31,1.13h9.48c1.28,0,2.39-.38,3.31-1.13.93-.75,1.39-1.64,1.39-2.68v-49.94c0-1.04-.46-1.93-1.39-2.68-.93-.75-2.03-1.13-3.31-1.13h-35.78c-1.28,0-2.39.38-3.31,1.13-.93.75-1.39,1.64-1.39,2.68v90.46c0,1.04.46,1.93,1.39,2.68.93.75,2.03,1.13,3.31,1.13Z"></path><path class="st0" d="M287.29,37.63h-16.1c-1.28,0-2.38.48-3.28,1.43-.91.95-1.36,2.08-1.36,3.4v2.78c0,1.09.3,2.05.89,2.89.6.84,1.38,1.42,2.35,1.73v73.61c-.97.32-1.76.89-2.35,1.73-.6.84-.89,1.8-.89,2.89v2.79c0,1.31.45,2.45,1.36,3.4.9.95,2,1.43,3.28,1.43h16.1c1.28,0,2.39-.48,3.31-1.43.93-.95,1.39-2.08,1.39-3.4v-2.79c0-1.04-.31-1.99-.93-2.85-.62-.86-1.41-1.45-2.39-1.77V49.86c.97-.32,1.77-.91,2.39-1.77.62-.86.93-1.81.93-2.85v-2.78c0-1.31-.46-2.45-1.39-3.4-.93-.95-2.03-1.43-3.31-1.43Z"></path><path class="st0" d="M341.89,39.02c-.93-.93-2.03-1.39-3.31-1.39h-37.64c-1.28,0-2.39.46-3.31,1.39-.93.93-1.39,2.03-1.39,3.31v7.29c0,1.28.46,2.39,1.39,3.31.93.93,2.03,1.39,3.31,1.39h9.34v92.63c-.97.31-1.77.88-2.39,1.72-.62.84-.93,1.77-.93,2.78v2.72c0,1.28.46,2.39,1.39,3.31.93.93,2.03,1.39,3.31,1.39h16.1c1.28,0,2.39-.46,3.31-1.39.93-.93,1.39-2.03,1.39-3.31v-2.72c0-1.02-.31-1.94-.93-2.78-.62-.84-1.41-1.41-2.39-1.72V54.33h9.41c1.28,0,2.39-.46,3.31-1.39.93-.93,1.39-2.03,1.39-3.31v-7.29c0-1.28-.46-2.39-1.39-3.31Z"></path></g><path class="st0" d="M190.9,172.67c-10.52,0-21.14-1.21-31.74-3.62-28.3-6.44-46.55-19.15-47.31-19.68-2.49-1.76-3.09-5.2-1.33-7.69,1.76-2.49,5.2-3.09,7.69-1.34h0c.17.12,17.53,12.14,43.83,18.04,15.31,3.43,30.64,4.15,45.56,2.13,18.63-2.52,36.72-9.35,53.77-20.3,2.57-1.65,5.98-.9,7.63,1.66,1.65,2.57.9,5.98-1.66,7.63-18.51,11.88-38.21,19.28-58.55,21.99-5.91.79-11.88,1.18-17.88,1.18Z"></path></svg>